# xmcd
#
# Track frame offsets:
#	150
#	20940
#	47530
#
# Disc length: 910 seconds
#
# Revision: 1
# Processed by: cddbd v1.5PL3 Copyright (c) Steve Scherf et al.
# Submitted via: CDex 1.50Beta5
#
DISCID=20038c03
DTITLE=noyori - エゴイスト
DYEAR=2002
DGENRE=Pop
TTITLE0=エゴイスト
TTITLE1=オレンジ
TTITLE2=エゴイスト(Backing Track)
EXTD=
EXTT0=
EXTT1=
EXTT2=
PLAYORDER=
